<svg version="1.1" xmlns="http://www.w3.org/2000/svg" style="display: block;" viewBox="140 730 1750 570" preserveAspectRatio="xMidYMid meet">
<path transform="translate(0,0)" fill="rgb(5,33,74)" d="M 1218.69 913.449 C 1256.31 910.87 1297.54 921.518 1326.85 945.895 C 1338.73 908.289 1360.39 920.345 1391.31 918.595 C 1439.58 915.863 1432.51 949.081 1432.62 982.944 L 1432.64 1052.49 L 1432.81 1183.37 C 1432.82 1210.72 1433.82 1246.45 1430.05 1272.66 C 1426.01 1300.19 1416.75 1326.69 1402.75 1350.73 C 1339.91 1457.12 1188.79 1466.81 1091.65 1407.04 C 1056.56 1385.45 1052.26 1370.81 1074.12 1336.13 C 1080.76 1327.05 1089.22 1314.57 1098.59 1308.12 C 1121.24 1292.7 1144.52 1315.91 1165.37 1325.33 C 1206.18 1343.8 1256.18 1345.97 1293.98 1318.8 C 1319.38 1300.55 1322.83 1276.95 1327.33 1247.53 C 1304.26 1271.83 1267.22 1283.3 1234.53 1285 C 1182.89 1287.19 1132.44 1269.08 1093.97 1234.56 C 1058.59 1202.48 1038.86 1155.12 1036.16 1107.91 C 1029.97 999.752 1112.9 918.118 1218.69 913.449 z"/>
<path transform="translate(0,0)" fill="rgb(255,255,254)" d="M 1144.49 1076.65 C 1150.91 1059.3 1156.41 1049.31 1170.25 1036.57 C 1195.77 1013.08 1236.52 1008.1 1268.49 1020.14 C 1290.01 1028.08 1307.51 1044.22 1317.15 1065.03 C 1326.34 1085.39 1326.04 1109.75 1318.1 1130.46 C 1310.02 1150.95 1294.21 1167.43 1274.08 1176.35 C 1228.48 1196.58 1170.7 1177.04 1148.56 1131.72 C 1147.32 1131.59 1148.15 1131.74 1146.16 1130.89 C 1142.77 1125.32 1142.02 1124.4 1140.39 1117.98 C 1138.07 1108.83 1137.69 1083.55 1142.79 1075.94 L 1144.49 1076.65 z"/>
<path transform="translate(0,0)" fill="rgb(5,29,59)" d="M 1148.56 1131.72 C 1147.32 1131.59 1148.15 1131.74 1146.16 1130.89 C 1142.77 1125.32 1142.02 1124.4 1140.39 1117.98 C 1138.07 1108.83 1137.69 1083.55 1142.79 1075.94 L 1144.49 1076.65 C 1140.71 1099.32 1141.06 1109.8 1148.56 1131.72 z"/>
<path transform="translate(0,0)" fill="rgb(253,92,1)" d="M 1272.39 1081.29 C 1279.35 1081 1296.62 1079.52 1301.68 1083.98 C 1307.01 1099.43 1291.93 1124.77 1280.02 1134.58 C 1264.13 1147.67 1247.86 1153.53 1227.34 1151.9 C 1209.55 1150.41 1193.05 1142.06 1181.31 1128.62 C 1173.84 1120.22 1158.79 1095.58 1166.12 1084.69 C 1172.13 1080.56 1188.5 1082.16 1196.22 1082.67 C 1198.31 1090.01 1201.2 1099.77 1206.29 1104.98 C 1226.91 1125.95 1254.02 1121.79 1265.65 1094.29 C 1267.83 1089.15 1267.74 1084.63 1272.39 1081.29 z"/>
<path transform="translate(0,0)" fill="rgb(5,33,74)" d="M 1663.19 913.438 C 1698.1 912.789 1736.49 922.447 1762.61 946.645 C 1776.12 913.669 1786.74 920.292 1817.17 918.841 C 1833.63 918.055 1866.2 917.871 1867.83 939.462 C 1870.03 968.684 1868.71 1006.62 1868.72 1035.96 L 1868.59 1178.05 C 1868.51 1202.06 1869.04 1225.5 1868.1 1249.8 C 1870.24 1261.33 1856.44 1280.96 1843.4 1280.85 C 1811.32 1280.57 1766.47 1294.2 1759.78 1252.49 C 1746.86 1263.01 1741.05 1266.12 1726.34 1273.47 C 1710.01 1281.4 1686.32 1286.09 1668.25 1286.85 C 1565.39 1291.19 1480.64 1211.89 1476.11 1109.26 C 1473.6 1059.3 1491.32 1010.43 1525.26 973.678 C 1561.33 934.548 1610.71 915.444 1663.19 913.438 z"/>
<path transform="translate(0,0)" fill="rgb(255,255,254)" d="M 1588.46 1080.91 C 1590.63 1075.15 1592.75 1069.77 1595.61 1064.3 C 1616.73 1023.95 1663.61 1007.85 1705.75 1024.37 C 1726.36 1032.51 1742.83 1048.6 1751.47 1069.01 C 1759.88 1088.9 1760.61 1112.09 1752.22 1132.12 C 1743.46 1152.86 1726.87 1169.3 1706.06 1177.88 C 1684.35 1186.73 1658.71 1185.93 1637.22 1176.78 C 1615.99 1167.77 1599.28 1150.59 1590.86 1129.11 C 1587.14 1119.82 1588.13 1113.8 1586.39 1108.22 C 1585.9 1099.28 1587.31 1089.77 1588.46 1080.91 z"/>
<path transform="translate(0,0)" fill="rgb(5,33,74)" d="M 827.459 1066.02 C 829.764 1073.22 830.163 1083.75 830.311 1091.39 C 834.275 1296.77 561.054 1358.72 460.135 1189.61 C 431.678 1141.93 429.24 1082.88 449.604 1031.71 C 468.437 985.696 504.904 949.132 550.87 930.175 C 603.354 908.222 662.418 908.065 715.017 929.739 C 762.7 949.469 797.823 984.256 817.481 1032.04 C 821.753 1042.62 826.228 1054.59 827.459 1066.02 z"/>
<path transform="translate(0,0)" fill="rgb(255,255,254)" d="M 625.971 1017.11 C 672.45 1013.99 712.672 1049.1 715.872 1095.58 C 719.071 1142.05 684.04 1182.34 637.573 1185.63 C 590.981 1188.92 550.559 1153.78 547.351 1107.18 C 544.143 1060.58 579.366 1020.22 625.971 1017.11 z"/>
<path transform="translate(0,0)" fill="rgb(5,33,74)" d="M 223.797 922.271 C 223.347 867.434 223.819 824.261 265.555 781.756 C 293.693 753.296 331.965 737.148 371.985 736.851 C 395.57 736.691 434.33 744.022 452.583 759.553 C 470.363 775.984 458.153 817.689 448.621 835.336 C 432.842 864.546 404.199 845.437 378.973 844.543 C 345.541 843.357 334.858 868.373 332.936 897.819 C 332.453 905.838 332.264 913.872 332.371 921.905 C 342.309 921.77 354.118 921.741 363.835 921.556 C 397.999 920.904 427.912 919.453 424.426 964.346 C 423.141 980.884 428.14 1001.82 414.329 1015.45 C 410.51 1019.18 405.763 1021.81 400.582 1023.08 C 389.56 1025.9 346.014 1024.17 332.579 1024.16 L 332.693 1180.47 C 332.713 1198.85 332.218 1221.2 332.634 1239.85 C 334.868 1290.44 294.451 1281.56 259.336 1281.97 C 238.909 1282.2 223.976 1271.27 223.411 1249.52 C 221.47 1174.83 225.043 1098.95 223.646 1024.31 C 212.534 1024.56 178.738 1027.19 171.731 1019.84 C 156.88 1011.16 158.367 995.34 158.986 980.312 C 157.327 945.808 157.374 923.211 199.334 922.266 C 207.488 922.145 215.643 922.147 223.797 922.271 z"/>
<path transform="translate(0,0)" fill="rgb(5,29,59)" d="M 158.986 980.312 L 159.252 981.163 C 161.173 987.503 161.363 998.711 165.919 1003.99 C 169.475 1002.99 170.674 1002.35 174.412 1003.32 C 176.38 1005.12 176.279 1004.95 177.097 1007.49 L 178.609 1008.31 C 176.789 1011.97 177.623 1011.74 174.686 1013.32 C 172.265 1011.26 171.885 1010.83 168.631 1010.11 L 166.82 1010.81 L 166.829 1012.35 C 170.707 1015.14 172.447 1014.9 171.731 1019.84 C 156.88 1011.16 158.367 995.34 158.986 980.312 z"/>
<path transform="translate(0,0)" fill="rgb(5,33,74)" d="M 909.088 743.514 C 915.961 743.492 923.238 743.47 930.099 743.463 C 980.261 743.417 990.214 741.538 990.154 794.71 L 990.133 843.197 L 990.044 1004.54 L 990.092 1177.31 C 990.024 1203.99 990.792 1231.34 989.089 1257.89 C 988.224 1271.38 970.554 1280.89 958.25 1281.88 C 936.086 1282.18 884.317 1289 881.007 1257.64 C 879.385 1242.29 880.417 1220.89 880.436 1204.99 L 880.541 1086 L 880.366 878.876 C 880.293 844.074 879.912 809.248 880.454 774.459 C 880.737 756.334 891.839 746.547 909.088 743.514 z"/>
</svg>